<svg width="25" height="25" viewBox="0 0 25 25" fill="none" xmlns="http://www.w3.org/2000/svg">
<path  d="M22.7457 9.41485C22.6829 9.22972 22.5672 9.06705 22.4129 8.94691C22.2587 8.82678 22.0726 8.75445 21.8777 8.73885L16.1767 8.28585L13.7097 2.82485C13.6312 2.64897 13.5034 2.49958 13.3418 2.39471C13.1802 2.28985 12.9917 2.23399 12.7991 2.23389C12.6064 2.23378 12.4179 2.28943 12.2562 2.39412C12.0944 2.4988 11.9665 2.64805 11.8877 2.82385L9.42073 8.28585L3.71973 8.73885C3.52819 8.75403 3.34507 8.82406 3.19229 8.94059C3.0395 9.05711 2.92353 9.21518 2.85823 9.39588C2.79293 9.57659 2.78107 9.77229 2.82408 9.95956C2.86708 10.1468 2.96313 10.3177 3.10073 10.4519L7.31373 14.5589L5.82373 21.0109C5.77849 21.2062 5.79299 21.4105 5.86535 21.5975C5.93771 21.7845 6.0646 21.9453 6.22953 22.0593C6.39447 22.1732 6.58985 22.235 6.79032 22.2365C6.99078 22.238 7.18708 22.1793 7.35373 22.0679L12.7987 18.4379L18.2437 22.0679C18.4141 22.1809 18.615 22.2392 18.8194 22.2347C19.0238 22.2302 19.2219 22.1632 19.3871 22.0428C19.5523 21.9223 19.6767 21.7542 19.7435 21.5609C19.8103 21.3677 19.8163 21.1586 19.7607 20.9619L17.9317 14.5619L22.4677 10.4799C22.7647 10.2119 22.8737 9.79385 22.7457 9.41485V9.41485Z" fill="#FA9035"/>
</svg>
