<svg width="40" height="40" viewBox="0 0 40 40" fill="none" xmlns="http://www.w3.org/2000/svg">
<rect width="40" height="40" fill="#041562"/>
<path d="M5.72164 28.875L5.13164 33C5.09518 33.256 5.1188 33.517 5.20063 33.7623C5.28247 34.0077 5.42027 34.2306 5.60315 34.4135C5.78602 34.5963 6.00894 34.7341 6.25427 34.816C6.49959 34.8978 6.7606 34.9214 7.01664 34.885L11.1416 34.295C11.7666 34.2066 13.3333 30 13.3333 30C13.3333 30 14.12 30.675 14.4416 30.7766C15.1283 30.9933 15.7966 30.32 16.0216 29.6366L16.6666 26.6833C16.6666 26.6833 17.6283 27.17 17.9766 27.2416C18.42 27.3333 18.85 27.06 19.155 26.7533C19.3382 26.5706 19.4758 26.3474 19.5566 26.1016L20 23.35C20 23.35 21.125 23.6616 21.51 23.7066C21.9483 23.7566 22.375 23.5333 22.6883 23.2183L24.585 21.3233C26.1905 21.8435 27.9084 21.9106 29.5496 21.5172C31.1908 21.1237 32.6916 20.285 33.8866 19.0933C35.6028 17.3727 36.5665 15.0418 36.5665 12.6116C36.5665 10.1815 35.6028 7.85054 33.8866 6.12996C32.1661 4.41382 29.8351 3.45007 27.405 3.45007C24.9748 3.45007 22.6439 4.41382 20.9233 6.12996C19.7313 7.32483 18.8923 8.8256 18.4989 10.4669C18.1054 12.1081 18.1727 13.8262 18.6933 15.4316L6.19164 27.9316C5.93646 28.1865 5.77144 28.5177 5.72164 28.875ZM30.84 9.17663C31.7492 10.0886 32.2598 11.3238 32.2598 12.6116C32.2598 13.8994 31.7492 15.1347 30.84 16.0466L23.97 9.17663C24.8819 8.26736 26.1172 7.75677 27.405 7.75677C28.6928 7.75677 29.928 8.26736 30.84 9.17663Z" fill="white"/>
</svg>
