<svg width="40" height="40" viewBox="0 0 40 40" fill="none" xmlns="http://www.w3.org/2000/svg">
<path d="M5.72164 28.875L5.13164 33C5.09518 33.2561 5.1188 33.5171 5.20063 33.7624C5.28247 34.0077 5.42027 34.2306 5.60315 34.4135C5.78602 34.5964 6.00894 34.7342 6.25427 34.816C6.49959 34.8979 6.7606 34.9215 7.01664 34.885L11.1416 34.295C11.7666 34.2067 13.3333 30 13.3333 30C13.3333 30 14.12 30.675 14.4416 30.7767C15.1283 30.9934 15.7966 30.32 16.0216 29.6367L16.6666 26.6834C16.6666 26.6834 17.6283 27.17 17.9766 27.2417C18.42 27.3334 18.85 27.06 19.155 26.7534C19.3382 26.5707 19.4758 26.3474 19.5566 26.1017L20 23.35C20 23.35 21.125 23.6617 21.51 23.7067C21.9483 23.7567 22.375 23.5334 22.6883 23.2184L24.585 21.3234C26.1905 21.8436 27.9084 21.9107 29.5496 21.5172C31.1908 21.1238 32.6916 20.285 33.8866 19.0934C35.6028 17.3728 36.5665 15.0418 36.5665 12.6117C36.5665 10.1816 35.6028 7.85061 33.8866 6.13002C32.1661 4.41388 29.8351 3.45013 27.405 3.45013C24.9748 3.45013 22.6439 4.41388 20.9233 6.13002C19.7313 7.3249 18.8923 8.82566 18.4989 10.4669C18.1054 12.1082 18.1727 13.8262 18.6933 15.4317L6.19164 27.9317C5.93646 28.1866 5.77144 28.5178 5.72164 28.875V28.875ZM30.84 9.17669C31.7492 10.0886 32.2598 11.3239 32.2598 12.6117C32.2598 13.8995 31.7492 15.1347 30.84 16.0467L23.97 9.17669C24.8819 8.26742 26.1172 7.75683 27.405 7.75683C28.6928 7.75683 29.928 8.26742 30.84 9.17669Z" fill="white"/>
</svg>
