<svg width="249" height="63" viewBox="0 0 249 63" fill="none" xmlns="http://www.w3.org/2000/svg">
<path d="M53.6172 38.7012V38.2969C53.6172 36.9258 53.8164 35.6543 54.2148 34.4824C54.6133 33.2988 55.1875 32.2734 55.9375 31.4062C56.6875 30.5273 57.5957 29.8477 58.6621 29.3672C59.7285 28.875 60.9238 28.6289 62.248 28.6289C63.584 28.6289 64.7852 28.875 65.8516 29.3672C66.9297 29.8477 67.8438 30.5273 68.5938 31.4062C69.3555 32.2734 69.9355 33.2988 70.334 34.4824C70.7324 35.6543 70.9316 36.9258 70.9316 38.2969V38.7012C70.9316 40.0723 70.7324 41.3438 70.334 42.5156C69.9355 43.6875 69.3555 44.7129 68.5938 45.5918C67.8438 46.459 66.9355 47.1387 65.8691 47.6309C64.8145 48.1113 63.6191 48.3516 62.2832 48.3516C60.9473 48.3516 59.7461 48.1113 58.6797 47.6309C57.6133 47.1387 56.6992 46.459 55.9375 45.5918C55.1875 44.7129 54.6133 43.6875 54.2148 42.5156C53.8164 41.3438 53.6172 40.0723 53.6172 38.7012ZM56.8691 38.2969V38.7012C56.8691 39.6504 56.9805 40.5469 57.2031 41.3906C57.4258 42.2227 57.7598 42.9609 58.2051 43.6055C58.6621 44.25 59.2305 44.7598 59.9102 45.1348C60.5898 45.498 61.3809 45.6797 62.2832 45.6797C63.1738 45.6797 63.9531 45.498 64.6211 45.1348C65.3008 44.7598 65.8633 44.25 66.3086 43.6055C66.7539 42.9609 67.0879 42.2227 67.3105 41.3906C67.5449 40.5469 67.6621 39.6504 67.6621 38.7012V38.2969C67.6621 37.3594 67.5449 36.4746 67.3105 35.6426C67.0879 34.7988 66.748 34.0547 66.291 33.4102C65.8457 32.7539 65.2832 32.2383 64.6035 31.8633C63.9355 31.4883 63.1504 31.3008 62.248 31.3008C61.3574 31.3008 60.5723 31.4883 59.8926 31.8633C59.2246 32.2383 58.6621 32.7539 58.2051 33.4102C57.7598 34.0547 57.4258 34.7988 57.2031 35.6426C56.9805 36.4746 56.8691 37.3594 56.8691 38.2969ZM80.5117 45.0645L85.7148 28.9805H89.0371L82.1992 48H80.0195L80.5117 45.0645ZM76.1699 28.9805L81.5312 45.1523L81.9004 48H79.7207L72.8301 28.9805H76.1699ZM95.6992 28.9805V48H92.4297V28.9805H95.6992ZM92.1836 23.9355C92.1836 23.4082 92.3418 22.9629 92.6582 22.5996C92.9863 22.2363 93.4668 22.0547 94.0996 22.0547C94.7207 22.0547 95.1953 22.2363 95.5234 22.5996C95.8633 22.9629 96.0332 23.4082 96.0332 23.9355C96.0332 24.4395 95.8633 24.873 95.5234 25.2363C95.1953 25.5879 94.7207 25.7637 94.0996 25.7637C93.4668 25.7637 92.9863 25.5879 92.6582 25.2363C92.3418 24.873 92.1836 24.4395 92.1836 23.9355ZM108.812 48.3516C107.488 48.3516 106.287 48.1289 105.209 47.6836C104.143 47.2266 103.223 46.5879 102.449 45.7676C101.688 44.9473 101.102 43.9746 100.691 42.8496C100.281 41.7246 100.076 40.4941 100.076 39.1582V38.4199C100.076 36.873 100.305 35.4961 100.762 34.2891C101.219 33.0703 101.84 32.0391 102.625 31.1953C103.41 30.3516 104.301 29.7129 105.297 29.2793C106.293 28.8457 107.324 28.6289 108.391 28.6289C109.75 28.6289 110.922 28.8633 111.906 29.332C112.902 29.8008 113.717 30.457 114.35 31.3008C114.982 32.1328 115.451 33.1172 115.756 34.2539C116.061 35.3789 116.213 36.6094 116.213 37.9453V39.4043H102.01V36.75H112.961V36.5039C112.914 35.6602 112.738 34.8398 112.434 34.043C112.141 33.2461 111.672 32.5898 111.027 32.0742C110.383 31.5586 109.504 31.3008 108.391 31.3008C107.652 31.3008 106.973 31.459 106.352 31.7754C105.73 32.0801 105.197 32.5371 104.752 33.1465C104.307 33.7559 103.961 34.5 103.715 35.3789C103.469 36.2578 103.346 37.2715 103.346 38.4199V39.1582C103.346 40.0605 103.469 40.9102 103.715 41.707C103.973 42.4922 104.342 43.1836 104.822 43.7812C105.314 44.3789 105.906 44.8477 106.598 45.1875C107.301 45.5273 108.098 45.6973 108.988 45.6973C110.137 45.6973 111.109 45.4629 111.906 44.9941C112.703 44.5254 113.4 43.8984 113.998 43.1133L115.967 44.6777C115.557 45.2988 115.035 45.8906 114.402 46.4531C113.77 47.0156 112.99 47.4727 112.064 47.8242C111.15 48.1758 110.066 48.3516 108.812 48.3516ZM131.084 42.9551C131.084 42.4863 130.979 42.0527 130.768 41.6543C130.568 41.2441 130.152 40.875 129.52 40.5469C128.898 40.207 127.961 39.9141 126.707 39.668C125.652 39.4453 124.697 39.1816 123.842 38.877C122.998 38.5723 122.277 38.2031 121.68 37.7695C121.094 37.3359 120.643 36.8262 120.326 36.2402C120.01 35.6543 119.852 34.9688 119.852 34.1836C119.852 33.4336 120.016 32.7246 120.344 32.0566C120.684 31.3887 121.158 30.7969 121.768 30.2812C122.389 29.7656 123.133 29.3613 124 29.0684C124.867 28.7754 125.834 28.6289 126.9 28.6289C128.424 28.6289 129.725 28.8984 130.803 29.4375C131.881 29.9766 132.707 30.6973 133.281 31.5996C133.855 32.4902 134.143 33.4805 134.143 34.5703H130.891C130.891 34.043 130.732 33.5332 130.416 33.041C130.111 32.5371 129.66 32.1211 129.062 31.793C128.477 31.4648 127.756 31.3008 126.9 31.3008C125.998 31.3008 125.266 31.4414 124.703 31.7227C124.152 31.9922 123.748 32.3379 123.49 32.7598C123.244 33.1816 123.121 33.627 123.121 34.0957C123.121 34.4473 123.18 34.7637 123.297 35.0449C123.426 35.3145 123.648 35.5664 123.965 35.8008C124.281 36.0234 124.727 36.2344 125.301 36.4336C125.875 36.6328 126.607 36.832 127.498 37.0312C129.057 37.3828 130.34 37.8047 131.348 38.2969C132.355 38.7891 133.105 39.3926 133.598 40.1074C134.09 40.8223 134.336 41.6895 134.336 42.709C134.336 43.541 134.16 44.3027 133.809 44.9941C133.469 45.6855 132.971 46.2832 132.314 46.7871C131.67 47.2793 130.896 47.666 129.994 47.9473C129.104 48.2168 128.102 48.3516 126.988 48.3516C125.312 48.3516 123.895 48.0527 122.734 47.4551C121.574 46.8574 120.695 46.084 120.098 45.1348C119.5 44.1855 119.201 43.1836 119.201 42.1289H122.471C122.518 43.0195 122.775 43.7285 123.244 44.2559C123.713 44.7715 124.287 45.1406 124.967 45.3633C125.646 45.5742 126.32 45.6797 126.988 45.6797C127.879 45.6797 128.623 45.5625 129.221 45.3281C129.83 45.0938 130.293 44.7715 130.609 44.3613C130.926 43.9512 131.084 43.4824 131.084 42.9551ZM156.783 22.4062V48H153.443V22.4062H156.783ZM165.01 22.4062V25.1836H145.234V22.4062H165.01ZM181.428 45.3281V48H167.594V45.3281H181.428ZM180.918 31.2832L168.332 48H166.346V45.6094L178.844 28.9805H180.918V31.2832ZM179.477 28.9805V31.6699H166.486V28.9805H179.477ZM196.756 43.6055V28.9805H200.025V48H196.914L196.756 43.6055ZM197.371 39.5977L198.725 39.5625C198.725 40.8281 198.59 42 198.32 43.0781C198.062 44.1445 197.641 45.0703 197.055 45.8555C196.469 46.6406 195.701 47.2559 194.752 47.7012C193.803 48.1348 192.648 48.3516 191.289 48.3516C190.363 48.3516 189.514 48.2168 188.74 47.9473C187.979 47.6777 187.322 47.2617 186.771 46.6992C186.221 46.1367 185.793 45.4043 185.488 44.502C185.195 43.5996 185.049 42.5156 185.049 41.25V28.9805H188.301V41.2852C188.301 42.1406 188.395 42.8496 188.582 43.4121C188.781 43.9629 189.045 44.4023 189.373 44.7305C189.713 45.0469 190.088 45.2695 190.498 45.3984C190.92 45.5273 191.354 45.5918 191.799 45.5918C193.182 45.5918 194.277 45.3281 195.086 44.8008C195.895 44.2617 196.475 43.541 196.826 42.6387C197.189 41.7246 197.371 40.7109 197.371 39.5977ZM219.15 45.3281V48H205.316V45.3281H219.15ZM218.641 31.2832L206.055 48H204.068V45.6094L216.566 28.9805H218.641V31.2832ZM217.199 28.9805V31.6699H204.209V28.9805H217.199ZM234.479 43.6055V28.9805H237.748V48H234.637L234.479 43.6055ZM235.094 39.5977L236.447 39.5625C236.447 40.8281 236.312 42 236.043 43.0781C235.785 44.1445 235.363 45.0703 234.777 45.8555C234.191 46.6406 233.424 47.2559 232.475 47.7012C231.525 48.1348 230.371 48.3516 229.012 48.3516C228.086 48.3516 227.236 48.2168 226.463 47.9473C225.701 47.6777 225.045 47.2617 224.494 46.6992C223.943 46.1367 223.516 45.4043 223.211 44.502C222.918 43.5996 222.771 42.5156 222.771 41.25V28.9805H226.023V41.2852C226.023 42.1406 226.117 42.8496 226.305 43.4121C226.504 43.9629 226.768 44.4023 227.096 44.7305C227.436 45.0469 227.811 45.2695 228.221 45.3984C228.643 45.5273 229.076 45.5918 229.521 45.5918C230.904 45.5918 232 45.3281 232.809 44.8008C233.617 44.2617 234.197 43.541 234.549 42.6387C234.912 41.7246 235.094 40.7109 235.094 39.5977ZM246.238 21V48H242.969V21H246.238Z" fill="white"/>
<path d="M22.5344 39.765L13.5541 20.7557L13.5261 47.7557L22.5261 47.765L22.5344 39.765Z" fill="white"/>
<path d="M13.5588 16.2557L28.5261 47.7712L34.526 47.7775L36.5297 44.2796L22.5604 14.765L13.5604 14.7557L13.5588 16.2557Z" fill="white"/>
<path d="M33.0416 32.7759L37.5323 41.7806L40.5406 33.7837L40.526 47.7837L49.526 47.7931L49.5603 14.7931L40.5603 14.7837L33.0416 32.7759Z" fill="white"/>
<path d="M17.2504 20.0312L15.5825 16.5528L21.6776 16.5408L23.3455 20.0192L17.2504 20.0312Z" fill="black" stroke="black" stroke-linejoin="round"/>
<path d="M20.1339 26.227L18.4657 22.7485L24.5607 22.7371L26.229 26.2156L20.1339 26.227Z" fill="black" stroke="black" stroke-linejoin="round"/>
<path d="M23.0617 32.4814L21.3934 29.0029L27.4885 28.9915L29.1567 32.47L23.0617 32.4814Z" fill="black" stroke="black" stroke-linejoin="round"/>
<path d="M25.9893 38.7359L24.3211 35.2574L30.4161 35.2459L32.0844 38.7245L25.9893 38.7359Z" fill="black" stroke="black" stroke-linejoin="round"/>
<path d="M28.9049 44.9969L27.2367 41.5183L33.3317 41.5069L35 44.9855L28.9049 44.9969Z" fill="black" stroke="black" stroke-linejoin="round"/>
</svg>
