<svg width="37" height="35" viewBox="0 0 37 35" fill="none" xmlns="http://www.w3.org/2000/svg">
<path fill-rule="evenodd" clip-rule="evenodd" d="M0 15.2754C0 7.15021 7.09854 0.539131 15.8229 0.539131C24.5472 0.539131 31.6458 7.15021 31.6458 15.2754C31.6449 18.5459 30.4689 21.722 28.3052 24.2978L36.9998 32.3954L34.2031 35L25.5085 26.9024C22.743 28.9165 19.3335 30.0111 15.8229 30.0118C7.09854 30.0118 0 23.4007 0 15.2754ZM15.8229 28.1697C23.4693 28.1697 29.668 22.3968 29.668 15.2755C29.668 8.15414 23.4693 2.38118 15.8229 2.38118C8.17654 2.38118 1.97791 8.15414 1.97791 15.2755C1.97791 22.3968 8.17654 28.1697 15.8229 28.1697Z" fill="#EE2B47"/>
</svg>
