<svg width="483" height="193" viewBox="0 0 483 193" fill="none" xmlns="http://www.w3.org/2000/svg">
<path d="M283 11.8572L196 54.8572L234 173.357L366.5 141.857L283 11.8572Z" fill="white" stroke="black" stroke-width="3"/>
<path d="M31.1016 80.2322V114.357H22.8984L10.8281 93.1228V114.357H2.60156V80.2322H10.8281L22.8984 101.467V80.2322H31.1016ZM34.9453 101.935V101.443C34.9453 99.5837 35.2109 97.8728 35.7422 96.3103C36.2734 94.7322 37.0547 93.365 38.0859 92.2087C39.1172 91.0525 40.3906 90.1541 41.9062 89.5134C43.4219 88.8572 45.1719 88.5291 47.1562 88.5291C49.1562 88.5291 50.9141 88.8572 52.4297 89.5134C53.9609 90.1541 55.2422 91.0525 56.2734 92.2087C57.3047 93.365 58.0859 94.7322 58.6172 96.3103C59.1484 97.8728 59.4141 99.5837 59.4141 101.443V101.935C59.4141 103.779 59.1484 105.49 58.6172 107.068C58.0859 108.631 57.3047 109.998 56.2734 111.17C55.2422 112.326 53.9688 113.224 52.4531 113.865C50.9375 114.506 49.1875 114.826 47.2031 114.826C45.2188 114.826 43.4609 114.506 41.9297 113.865C40.3984 113.224 39.1172 112.326 38.0859 111.17C37.0547 109.998 36.2734 108.631 35.7422 107.068C35.2109 105.49 34.9453 103.779 34.9453 101.935ZM42.8438 101.443V101.935C42.8438 102.888 42.9141 103.779 43.0547 104.607C43.1953 105.435 43.4297 106.162 43.7578 106.787C44.0859 107.396 44.5312 107.873 45.0938 108.217C45.6562 108.56 46.3594 108.732 47.2031 108.732C48.0312 108.732 48.7188 108.56 49.2656 108.217C49.8281 107.873 50.2734 107.396 50.6016 106.787C50.9297 106.162 51.1641 105.435 51.3047 104.607C51.4453 103.779 51.5156 102.888 51.5156 101.935V101.443C51.5156 100.521 51.4453 99.6541 51.3047 98.8416C51.1641 98.0134 50.9297 97.2869 50.6016 96.6619C50.2734 96.0212 49.8281 95.5212 49.2656 95.1619C48.7031 94.8025 48 94.6228 47.1562 94.6228C46.3281 94.6228 45.6328 94.8025 45.0703 95.1619C44.5234 95.5212 44.0859 96.0212 43.7578 96.6619C43.4297 97.2869 43.1953 98.0134 43.0547 98.8416C42.9141 99.6541 42.8438 100.521 42.8438 101.443ZM76.2891 88.9978V94.4822H61.0078V88.9978H76.2891ZM64.2188 82.6931H72.1172V106.084C72.1172 106.756 72.1953 107.279 72.3516 107.654C72.5078 108.013 72.7734 108.271 73.1484 108.427C73.5391 108.568 74.0547 108.638 74.6953 108.638C75.1484 108.638 75.5234 108.631 75.8203 108.615C76.1172 108.584 76.3984 108.545 76.6641 108.498V114.146C75.9922 114.365 75.2891 114.529 74.5547 114.638C73.8203 114.763 73.0391 114.826 72.2109 114.826C70.5234 114.826 69.0781 114.56 67.875 114.029C66.6875 113.498 65.7812 112.662 65.1562 111.521C64.5312 110.381 64.2188 108.896 64.2188 107.068V82.6931ZM10.8281 136.232V170.357H2.60156V136.232H10.8281ZM24.0938 150.435V156.763H8.48438V150.435H24.0938ZM25.4297 136.232V142.584H8.48438V136.232H25.4297ZM26.9766 157.935V157.443C26.9766 155.584 27.2422 153.873 27.7734 152.31C28.3047 150.732 29.0859 149.365 30.1172 148.209C31.1484 147.052 32.4219 146.154 33.9375 145.513C35.4531 144.857 37.2031 144.529 39.1875 144.529C41.1875 144.529 42.9453 144.857 44.4609 145.513C45.9922 146.154 47.2734 147.052 48.3047 148.209C49.3359 149.365 50.1172 150.732 50.6484 152.31C51.1797 153.873 51.4453 155.584 51.4453 157.443V157.935C51.4453 159.779 51.1797 161.49 50.6484 163.068C50.1172 164.631 49.3359 165.998 48.3047 167.17C47.2734 168.326 46 169.224 44.4844 169.865C42.9688 170.506 41.2188 170.826 39.2344 170.826C37.25 170.826 35.4922 170.506 33.9609 169.865C32.4297 169.224 31.1484 168.326 30.1172 167.17C29.0859 165.998 28.3047 164.631 27.7734 163.068C27.2422 161.49 26.9766 159.779 26.9766 157.935ZM34.875 157.443V157.935C34.875 158.888 34.9453 159.779 35.0859 160.607C35.2266 161.435 35.4609 162.162 35.7891 162.787C36.1172 163.396 36.5625 163.873 37.125 164.217C37.6875 164.56 38.3906 164.732 39.2344 164.732C40.0625 164.732 40.75 164.56 41.2969 164.217C41.8594 163.873 42.3047 163.396 42.6328 162.787C42.9609 162.162 43.1953 161.435 43.3359 160.607C43.4766 159.779 43.5469 158.888 43.5469 157.935V157.443C43.5469 156.521 43.4766 155.654 43.3359 154.842C43.1953 154.013 42.9609 153.287 42.6328 152.662C42.3047 152.021 41.8594 151.521 41.2969 151.162C40.7344 150.802 40.0312 150.623 39.1875 150.623C38.3594 150.623 37.6641 150.802 37.1016 151.162C36.5547 151.521 36.1172 152.021 35.7891 152.662C35.4609 153.287 35.2266 154.013 35.0859 154.842C34.9453 155.654 34.875 156.521 34.875 157.443ZM69.7734 164.193V144.998H77.6953V170.357H70.2891L69.7734 164.193ZM70.5234 159.037L72.5859 158.99C72.5859 160.693 72.3828 162.271 71.9766 163.724C71.5703 165.162 70.9688 166.412 70.1719 167.474C69.3906 168.537 68.4219 169.365 67.2656 169.959C66.125 170.537 64.8047 170.826 63.3047 170.826C62.0547 170.826 60.9062 170.654 59.8594 170.31C58.8281 169.951 57.9375 169.396 57.1875 168.646C56.4375 167.881 55.8516 166.904 55.4297 165.717C55.0234 164.513 54.8203 163.076 54.8203 161.404V144.998H62.7188V161.451C62.7188 162.013 62.7891 162.498 62.9297 162.904C63.0703 163.31 63.2734 163.654 63.5391 163.935C63.8047 164.201 64.1328 164.404 64.5234 164.545C64.9297 164.67 65.3906 164.732 65.9062 164.732C67.0938 164.732 68.0234 164.482 68.6953 163.982C69.3672 163.482 69.8359 162.802 70.1016 161.943C70.3828 161.084 70.5234 160.115 70.5234 159.037ZM89.8125 150.412V170.357H81.9141V144.998H89.3203L89.8125 150.412ZM88.875 156.81L87.0234 156.857C87.0234 154.92 87.2578 153.193 87.7266 151.677C88.1953 150.146 88.8594 148.849 89.7188 147.787C90.5781 146.724 91.6016 145.92 92.7891 145.373C93.9922 144.81 95.3281 144.529 96.7969 144.529C97.9688 144.529 99.0391 144.701 100.008 145.045C100.992 145.388 101.836 145.943 102.539 146.709C103.258 147.474 103.805 148.49 104.18 149.756C104.57 151.006 104.766 152.552 104.766 154.396V170.357H96.8203V154.373C96.8203 153.357 96.6797 152.584 96.3984 152.052C96.1172 151.506 95.7109 151.131 95.1797 150.927C94.6484 150.724 94 150.623 93.2344 150.623C92.4219 150.623 91.7344 150.779 91.1719 151.092C90.6094 151.404 90.1562 151.842 89.8125 152.404C89.4844 152.951 89.2422 153.599 89.0859 154.349C88.9453 155.099 88.875 155.92 88.875 156.81ZM123.727 164.545V134.357H131.672V170.357H124.547L123.727 164.545ZM108.164 157.982V157.49C108.164 155.568 108.375 153.818 108.797 152.24C109.219 150.646 109.844 149.279 110.672 148.138C111.5 146.982 112.531 146.092 113.766 145.467C115 144.842 116.422 144.529 118.031 144.529C119.469 144.529 120.727 144.865 121.805 145.537C122.883 146.193 123.805 147.115 124.57 148.302C125.336 149.49 125.961 150.881 126.445 152.474C126.93 154.052 127.297 155.756 127.547 157.584V158.17C127.297 159.888 126.93 161.513 126.445 163.045C125.961 164.56 125.336 165.904 124.57 167.076C123.805 168.248 122.875 169.17 121.781 169.842C120.703 170.498 119.438 170.826 117.984 170.826C116.375 170.826 114.953 170.506 113.719 169.865C112.5 169.224 111.477 168.326 110.648 167.17C109.836 166.013 109.219 164.654 108.797 163.092C108.375 161.529 108.164 159.826 108.164 157.982ZM116.062 157.49V157.982C116.062 158.935 116.125 159.818 116.25 160.631C116.375 161.443 116.586 162.162 116.883 162.787C117.195 163.396 117.602 163.873 118.102 164.217C118.617 164.56 119.25 164.732 120 164.732C121.016 164.732 121.852 164.49 122.508 164.006C123.18 163.521 123.672 162.834 123.984 161.943C124.312 161.052 124.453 160.006 124.406 158.802V156.951C124.438 155.92 124.367 155.013 124.195 154.232C124.023 153.435 123.75 152.771 123.375 152.24C123.016 151.709 122.555 151.31 121.992 151.045C121.445 150.763 120.797 150.623 120.047 150.623C119.312 150.623 118.688 150.795 118.172 151.138C117.672 151.482 117.266 151.967 116.953 152.592C116.641 153.201 116.414 153.927 116.273 154.771C116.133 155.599 116.062 156.506 116.062 157.49Z" fill="#EE2B47"/>
<path d="M324.476 137.907L263.945 23.1319" stroke="black" stroke-width="5" stroke-linejoin="round"/>
<path d="M264.584 166.54L214.184 44.6991" stroke="black" stroke-width="5" stroke-linejoin="round"/>
<path d="M294.85 153.552L239.821 33.1832" stroke="black" stroke-width="5" stroke-linejoin="round"/>
<path d="M283.556 11.5341L354.966 124.072L237.229 180.358L195.509 53.6267L283.556 11.5341Z" stroke="black" stroke-width="5" stroke-linejoin="round"/>
<path d="M234.921 100.181C227.188 84.0053 234.215 64.4955 250.676 56.6257C267.138 48.7558 286.734 55.5385 294.467 71.7138C302.2 87.8891 295.173 107.399 278.712 115.269C262.25 123.139 242.654 116.356 234.921 100.181Z" fill="#EE2B47" stroke="black" stroke-width="3"/>
<path d="M267.859 72.1187L270.73 70.7464L271.757 72.8953L268.887 74.2676C268.495 74.4546 268.21 74.6724 268.03 74.9208C267.85 75.1692 267.76 75.4362 267.76 75.7219C267.758 76.0154 267.827 76.3101 267.969 76.6062C268.12 76.9233 268.319 77.1889 268.564 77.4029C268.804 77.6195 269.084 77.7516 269.406 77.7992C269.73 77.8521 270.088 77.785 270.479 77.598L272.303 76.7261L267.81 67.3297L270.594 65.9991L276.113 77.5444L271.506 79.7469C270.581 80.1892 269.704 80.4004 268.877 80.3805C268.044 80.3631 267.306 80.1443 266.663 79.7241C266.023 79.3092 265.523 78.7237 265.161 77.9678C264.805 77.2224 264.674 76.4863 264.768 75.7593C264.862 75.0324 265.17 74.3525 265.692 73.7197C266.212 73.0946 266.934 72.561 267.859 72.1187ZM253.116 81.729L252.893 81.2612C252.47 80.3784 252.216 79.526 252.128 78.7042C252.038 77.8901 252.098 77.1272 252.31 76.4155C252.524 75.7091 252.875 75.0771 253.362 74.5196C253.851 73.9674 254.466 73.5144 255.206 73.1606C255.951 72.8043 256.695 72.6078 257.437 72.5711C258.177 72.5423 258.892 72.665 259.581 72.9393C260.268 73.2214 260.903 73.6519 261.485 74.231C262.064 74.8178 262.565 75.5526 262.987 76.4354L263.21 76.9033C263.632 77.7861 263.89 78.6372 263.983 79.4565C264.071 80.2784 264.01 81.0413 263.801 81.7452C263.589 82.4569 263.239 83.0889 262.749 83.6411C262.257 84.2011 261.638 84.6592 260.893 85.0156C260.153 85.3694 259.413 85.5607 258.673 85.5896C257.931 85.6262 257.216 85.5035 256.53 85.2214C255.845 84.9446 255.211 84.514 254.626 83.9297C254.042 83.3454 253.538 82.6119 253.116 81.729ZM255.715 79.9116L255.947 80.3953C256.22 80.9663 256.51 81.4445 256.818 81.8299C257.123 82.2232 257.441 82.5224 257.773 82.7274C258.105 82.9325 258.446 83.042 258.797 83.0561C259.145 83.078 259.496 83.0043 259.85 82.835C260.22 82.6581 260.506 82.4272 260.708 82.1425C260.912 81.8631 261.036 81.5311 261.079 81.1466C261.123 80.7621 261.087 80.3278 260.973 79.8435C260.855 79.3671 260.66 78.8434 260.387 78.2725L260.156 77.7888C259.886 77.2231 259.601 76.7424 259.301 76.3466C258.999 75.9586 258.683 75.6582 258.354 75.4453C258.019 75.235 257.678 75.1189 257.33 75.097C256.976 75.0776 256.615 75.1564 256.245 75.3333C255.89 75.5026 255.613 75.7296 255.411 76.0144C255.209 76.2991 255.088 76.6363 255.047 77.0261C255.001 77.4184 255.034 77.854 255.146 78.333C255.255 78.8198 255.445 79.346 255.715 79.9116ZM246.069 82.536L248.939 81.1637L249.967 83.3126L247.096 84.6849C246.705 84.8719 246.42 85.0896 246.24 85.338C246.06 85.5864 245.97 85.8535 245.97 86.1392C245.967 86.4326 246.037 86.7274 246.178 87.0234C246.33 87.3406 246.528 87.6062 246.773 87.8202C247.013 88.0367 247.294 88.1688 247.616 88.2164C247.94 88.2694 248.297 88.2023 248.688 88.0153L250.512 87.1434L246.02 77.7469L248.803 76.4163L254.323 87.9617L249.716 90.1642C248.791 90.6064 247.914 90.8176 247.086 90.7977C246.253 90.7804 245.515 90.5616 244.873 90.1414C244.233 89.7264 243.732 89.141 243.371 88.385C243.015 87.6397 242.883 86.9035 242.978 86.1766C243.072 85.4497 243.38 84.7698 243.902 84.137C244.422 83.5119 245.144 82.9783 246.069 82.536Z" fill="black"/>
<path d="M263.653 61.9894L262.807 62.3937C262.657 61.9674 262.6 61.5492 262.635 61.1393C262.669 60.7293 262.814 60.3482 263.068 59.9959C263.323 59.6467 263.707 59.3492 264.221 59.1035C264.597 58.9237 264.973 58.8307 265.349 58.8242C265.722 58.8192 266.08 58.8932 266.424 59.0463C266.769 59.2024 267.089 59.4338 267.383 59.7404C267.676 60.0513 267.93 60.4315 268.145 60.8808L268.45 61.5196C268.665 61.9689 268.801 62.4037 268.858 62.8241C268.913 63.2487 268.891 63.6451 268.793 64.0132C268.692 64.3827 268.516 64.7137 268.266 65.0063C268.017 65.2989 267.693 65.54 267.297 65.7296C266.812 65.9612 266.359 66.066 265.937 66.044C265.515 66.022 265.135 65.8937 264.795 65.6591C264.454 65.4288 264.161 65.1128 263.915 64.7109L264.76 64.3066C264.945 64.5865 265.144 64.8069 265.358 64.968C265.573 65.1319 265.812 65.2235 266.074 65.2427C266.336 65.2619 266.632 65.1922 266.964 65.0335C267.249 64.8973 267.474 64.723 267.64 64.5104C267.802 64.2992 267.909 64.0587 267.96 63.7888C268.009 63.5203 268.003 63.229 267.943 62.9149C267.883 62.6008 267.772 62.2734 267.609 61.9327L267.299 61.2852C267.149 60.9709 266.976 60.6912 266.779 60.446C266.579 60.2023 266.362 60.0084 266.128 59.8645C265.893 59.7205 265.642 59.6382 265.376 59.6175C265.112 59.5997 264.837 59.6589 264.552 59.7951C264.191 59.9678 263.93 60.1626 263.771 60.3797C263.611 60.5967 263.528 60.8384 263.522 61.1047C263.513 61.3725 263.556 61.6674 263.653 61.9894ZM257.365 66.6785L257.171 66.2732C256.941 65.7916 256.795 65.3311 256.732 64.8917C256.67 64.4524 256.689 64.045 256.787 63.6697C256.885 63.2943 257.059 62.9603 257.309 62.6677C257.556 62.3765 257.875 62.1375 258.265 61.9508C258.644 61.7697 259.026 61.6738 259.41 61.6631C259.792 61.6539 260.163 61.7274 260.523 61.8837C260.879 62.0415 261.212 62.2811 261.521 62.6025C261.83 62.9239 262.099 63.3254 262.33 63.8071L262.523 64.2124C262.754 64.694 262.898 65.1537 262.955 65.5916C263.012 66.0337 262.989 66.4432 262.888 66.82C262.788 67.1997 262.615 67.5351 262.368 67.8263C262.118 68.1189 261.804 68.3558 261.425 68.5369C261.034 68.7236 260.648 68.8216 260.266 68.8309C259.882 68.8416 259.512 68.7658 259.157 68.6038C258.8 68.446 258.47 68.205 258.167 67.8808C257.862 67.5609 257.595 67.1602 257.365 66.6785ZM258.012 65.871L258.21 66.2851C258.393 66.6669 258.594 66.9857 258.814 67.2414C259.031 67.4986 259.262 67.6913 259.507 67.8194C259.752 67.9475 260.008 68.011 260.274 68.0098C260.538 68.0101 260.806 67.945 261.079 67.8144C261.344 67.6881 261.558 67.5222 261.724 67.317C261.886 67.1131 261.996 66.8748 262.053 66.6021C262.107 66.3308 262.105 66.0286 262.047 65.6956C261.989 65.3626 261.869 65.0052 261.686 64.6234L261.488 64.2093C261.304 63.8246 261.1 63.5036 260.876 63.2463C260.654 62.9919 260.418 62.7999 260.168 62.6703C259.917 62.545 259.661 62.4815 259.4 62.4798C259.137 62.4795 258.873 62.5425 258.609 62.6689C258.333 62.8008 258.112 62.9695 257.947 63.1748C257.781 63.38 257.673 63.6176 257.622 63.8875C257.569 64.1618 257.574 64.464 257.638 64.7942C257.704 65.1273 257.829 65.4863 258.012 65.871ZM257.528 70.2916L255.405 71.3067C254.923 71.5369 254.481 71.658 254.079 71.6698C253.674 71.683 253.316 71.5871 253.005 71.3821C252.693 71.1815 252.437 70.8727 252.238 70.4556C252.097 70.162 252.029 69.8644 252.033 69.5631C252.035 69.2661 252.107 68.9791 252.249 68.7021C252.389 68.4294 252.594 68.1782 252.863 67.9486L253.057 67.7423L255.052 66.7883L255.392 67.4757L253.885 68.196C253.58 68.342 253.351 68.5163 253.199 68.7189C253.048 68.9244 252.965 69.1428 252.949 69.374C252.933 69.6053 252.978 69.831 253.083 70.0513C253.201 70.298 253.353 70.4907 253.538 70.6294C253.724 70.768 253.945 70.8375 254.201 70.8376C254.456 70.8422 254.746 70.7665 255.072 70.6106L256.345 70.002L253.611 64.2839L254.462 63.8775L257.528 70.2916ZM250.713 65.6697L253.662 67.8317L252.779 68.2594L249.83 66.1564L249.805 66.1035L250.713 65.6697ZM247.035 75.3081L243.968 68.894L244.823 68.4855L250.417 71.8889L248.052 66.9417L248.902 66.5353L251.969 72.9494L251.118 73.3558L245.505 69.9455L247.876 74.9059L247.035 75.3081Z" fill="black"/>
<path d="M273.026 88.8963L284.437 98.6656L276.025 81.7884L270.534 83.8956L273.026 88.8963Z" fill="white"/>
<path d="M285.839 101.479L266.873 85.3004L263.212 86.7052L263.082 89.3613L280.815 104.523L286.306 102.416L285.839 101.479Z" fill="white"/>
<path d="M268.801 95.7303L263.251 91.1581L263.913 96.8612L259.551 88.11L254.06 90.2173L264.342 110.845L269.833 108.738L268.801 95.7303Z" fill="white"/>
<path d="M282.409 99.9861L284.512 101.768L280.799 103.206L278.696 101.425L282.409 99.9861Z" fill="black" stroke="black" stroke-linejoin="round"/>
<path d="M278.716 96.7917L280.82 98.5735L277.106 100.012L275.003 98.2298L278.716 96.7917Z" fill="black" stroke="black" stroke-linejoin="round"/>
<path d="M274.978 93.5711L277.082 95.353L273.368 96.7911L271.265 95.0093L274.978 93.5711Z" fill="black" stroke="black" stroke-linejoin="round"/>
<path d="M271.24 90.3503L273.344 92.1322L269.63 93.5704L267.527 91.7885L271.24 90.3503Z" fill="black" stroke="black" stroke-linejoin="round"/>
<path d="M267.508 87.1229L269.611 88.9048L265.898 90.3429L263.795 88.5611L267.508 87.1229Z" fill="black" stroke="black" stroke-linejoin="round"/>
<path d="M323.589 113.872L323.439 113.851L323.289 113.86C320.883 114.001 319.037 114.757 317.661 115.898C316.299 117.029 315.495 118.456 315.024 119.797C314.555 121.134 314.398 122.429 314.355 123.374C314.353 123.412 314.352 123.448 314.35 123.484C311.898 123.891 309.517 125.255 308.026 127.367C306.155 130.018 305.817 133.651 308.074 137.601C309.284 139.719 310.911 140.945 312.71 141.496C314.465 142.033 316.251 141.889 317.773 141.526C319.302 141.16 320.661 140.551 321.624 140.045C321.831 139.936 322.021 139.831 322.193 139.734C322.298 139.824 322.411 139.919 322.531 140.019C323.281 140.634 324.356 141.419 325.624 142.043C326.884 142.663 328.419 143.167 330.059 143.114C331.745 143.059 333.44 142.416 334.937 140.918C336.592 139.264 337.277 137.39 337.306 135.529C337.335 133.72 336.744 132.017 336.024 130.611C335.299 129.196 334.397 127.991 333.688 127.149C333.428 126.84 333.19 126.575 332.992 126.363C333.032 126.089 333.072 125.757 333.099 125.381C333.177 124.316 333.164 122.847 332.767 121.298C332.369 119.739 331.573 118.071 330.075 116.685C328.572 115.296 326.461 114.283 323.589 113.872Z" fill="white" stroke="black" stroke-width="3"/>
<path d="M351.589 146.872L351.439 146.851L351.289 146.86C348.883 147.001 347.037 147.757 345.661 148.898C344.299 150.029 343.495 151.456 343.024 152.797C342.555 154.134 342.398 155.429 342.355 156.374C342.353 156.412 342.352 156.448 342.35 156.484C339.898 156.891 337.517 158.255 336.026 160.367C334.155 163.018 333.817 166.651 336.074 170.601C337.284 172.719 338.911 173.945 340.71 174.496C342.465 175.033 344.251 174.889 345.773 174.526C347.302 174.16 348.661 173.551 349.624 173.045C349.831 172.936 350.021 172.831 350.193 172.734C350.298 172.824 350.411 172.919 350.531 173.019C351.281 173.634 352.356 174.419 353.624 175.043C354.884 175.663 356.419 176.167 358.059 176.114C359.745 176.059 361.44 175.416 362.937 173.918C364.592 172.264 365.277 170.39 365.306 168.529C365.335 166.72 364.744 165.017 364.024 163.611C363.299 162.196 362.397 160.991 361.688 160.149C361.428 159.84 361.19 159.575 360.992 159.363C361.032 159.089 361.072 158.757 361.099 158.381C361.177 157.316 361.164 155.847 360.767 154.298C360.369 152.739 359.573 151.071 358.075 149.685C356.572 148.296 354.461 147.283 351.589 146.872Z" fill="white" stroke="black" stroke-width="3"/>
<path d="M267.715 143.752L267.699 143.602L267.654 143.458C266.928 141.16 265.745 139.555 264.301 138.5C262.872 137.456 261.291 137.026 259.876 136.897C258.465 136.768 257.171 136.933 256.244 137.122C256.207 137.13 256.171 137.137 256.136 137.145C255.142 134.866 253.237 132.891 250.824 131.962C247.797 130.796 244.191 131.356 240.913 134.511C239.156 136.202 238.364 138.08 238.27 139.959C238.178 141.792 238.755 143.489 239.479 144.876C240.207 146.269 241.131 147.437 241.856 148.247C242.012 148.421 242.161 148.58 242.298 148.723C242.236 148.846 242.171 148.979 242.104 149.121C241.69 149.998 241.193 151.233 240.897 152.615C240.604 153.988 240.491 155.6 240.943 157.176C241.409 158.798 242.447 160.284 244.266 161.37C246.274 162.57 248.258 162.776 250.07 162.349C251.832 161.935 253.338 160.946 254.526 159.903C255.72 158.855 256.668 157.685 257.311 156.792C257.547 156.464 257.746 156.169 257.903 155.925C258.179 155.897 258.51 155.854 258.882 155.788C259.933 155.604 261.355 155.231 262.759 154.468C264.174 153.7 265.596 152.521 266.573 150.729C267.553 148.932 268.02 146.638 267.715 143.752Z" fill="white" stroke="black" stroke-width="3"/>
<path d="M330.705 145.103L330.595 144.999L330.466 144.92C328.416 143.653 326.471 143.21 324.689 143.353C322.925 143.495 321.447 144.202 320.29 145.028C319.138 145.852 318.265 146.822 317.687 147.57C317.664 147.6 317.642 147.629 317.62 147.658C315.379 146.58 312.647 146.329 310.213 147.2C307.158 148.293 304.793 151.071 304.369 155.602C304.142 158.03 304.769 159.968 305.925 161.454C307.051 162.902 308.596 163.811 310.05 164.388C311.511 164.968 312.974 165.25 314.052 165.39C314.284 165.42 314.5 165.443 314.697 165.462C314.731 165.596 314.768 165.74 314.81 165.89C315.069 166.825 315.499 168.085 316.177 169.324C316.852 170.556 317.818 171.851 319.19 172.75C320.602 173.674 322.358 174.122 324.445 173.757C326.749 173.354 328.387 172.215 329.48 170.709C330.544 169.245 331.04 167.512 331.259 165.948C331.479 164.373 331.433 162.869 331.337 161.772C331.302 161.369 331.259 161.016 331.219 160.729C331.41 160.528 331.633 160.279 331.872 159.987C332.547 159.16 333.381 157.95 333.947 156.455C334.517 154.95 334.825 153.128 334.395 151.133C333.964 149.132 332.819 147.09 330.705 145.103Z" fill="white" stroke="black" stroke-width="3"/>
<path d="M128.009 83.6961L127.884 83.5743L127.736 83.4842C126.542 82.761 125.347 82.5477 124.23 82.7174C123.147 82.8819 122.25 83.3885 121.571 83.9183C121.037 84.335 120.601 84.7947 120.27 85.1923C119.029 84.7928 117.613 84.8464 116.339 85.3984C114.498 86.1963 113.062 87.9714 112.653 90.6418C112.429 92.1058 112.698 93.3512 113.395 94.3296C114.067 95.2724 115.017 95.8001 115.855 96.0999C116.57 96.3556 117.281 96.4743 117.846 96.5294C117.963 97.0118 118.142 97.5923 118.415 98.1679C118.757 98.8908 119.302 99.7207 120.171 100.284C121.095 100.883 122.232 101.081 123.509 100.763C126.381 100.049 127.425 97.6092 127.781 95.8006C127.963 94.8734 127.994 94.0012 127.982 93.3713C127.98 93.2442 127.976 93.1257 127.971 93.0171C128.046 92.9305 128.126 92.8346 128.21 92.7299C128.613 92.2281 129.123 91.4914 129.498 90.5898C129.873 89.6856 130.135 88.562 129.959 87.3282C129.781 86.0722 129.167 84.8321 128.009 83.6961Z" fill="white" stroke="black" stroke-width="3"/>
<path d="M239.589 151.872L239.439 151.851L239.289 151.86C236.883 152.001 235.037 152.757 233.661 153.898C232.299 155.029 231.495 156.456 231.024 157.797C230.555 159.134 230.398 160.429 230.355 161.374C230.353 161.412 230.352 161.448 230.35 161.484C227.898 161.891 225.517 163.255 224.026 165.367C222.155 168.018 221.817 171.651 224.074 175.601C225.284 177.719 226.911 178.945 228.71 179.496C230.465 180.033 232.251 179.889 233.773 179.526C235.302 179.16 236.661 178.551 237.624 178.045C237.831 177.936 238.021 177.831 238.193 177.734C238.298 177.824 238.411 177.919 238.531 178.019C239.281 178.634 240.356 179.419 241.624 180.043C242.884 180.663 244.419 181.167 246.059 181.114C247.745 181.059 249.44 180.416 250.937 178.918C252.592 177.264 253.277 175.39 253.306 173.529C253.335 171.72 252.744 170.017 252.024 168.611C251.299 167.196 250.397 165.991 249.688 165.149C249.428 164.84 249.19 164.575 248.992 164.363C249.032 164.089 249.072 163.757 249.099 163.381C249.177 162.316 249.164 160.847 248.767 159.298C248.369 157.739 247.573 156.071 246.075 154.685C244.572 153.296 242.461 152.283 239.589 151.872Z" fill="white" stroke="black" stroke-width="3"/>
<path d="M350.746 142.257C350.746 142.257 358.271 135.212 350.264 128.256C342.852 124.065 338.81 132.168 338.81 132.168C334.609 129.456 327.277 130.673 326.84 138.723C326.389 147.033 337.219 146.616 337.219 146.616C337.219 146.616 339.011 155.994 345.795 154.534C353.399 152.897 350.746 142.257 350.746 142.257Z" fill="white" stroke="black" stroke-width="3"/>
<path d="M292.377 149.857C292.377 149.857 294.877 139.857 284.377 138.357C275.877 138.857 276.877 147.857 276.877 147.857C271.877 147.857 266.377 152.857 270.377 159.857C274.505 167.082 283.377 160.857 283.377 160.857C283.377 160.857 289.97 167.764 294.877 162.857C300.377 157.357 292.377 149.857 292.377 149.857Z" fill="white" stroke="black" stroke-width="3"/>
<path d="M275.377 162.857C275.377 162.857 277.877 152.857 267.377 151.357C258.877 151.857 259.877 160.857 259.877 160.857C254.877 160.857 249.377 165.857 253.377 172.857C257.505 180.082 266.377 173.857 266.377 173.857C266.377 173.857 272.97 180.764 277.877 175.857C283.377 170.357 275.377 162.857 275.377 162.857Z" fill="white" stroke="black" stroke-width="3"/>
<path d="M307.377 164.857C307.377 164.857 309.877 154.857 299.377 153.357C290.877 153.857 291.877 162.857 291.877 162.857C286.877 162.857 281.377 167.857 285.377 174.857C289.505 182.082 298.377 175.857 298.377 175.857C298.377 175.857 304.97 182.764 309.877 177.857C315.377 172.357 307.377 164.857 307.377 164.857Z" fill="white" stroke="black" stroke-width="3"/>
<g filter="url(#filter0_d_80_64)">
<path d="M376.113 145.242C376.113 145.242 382.801 137.398 374.064 131.383C366.229 128.05 363.121 136.555 363.121 136.555C358.643 134.331 351.493 136.362 351.961 144.411C352.445 152.718 363.159 151.089 363.159 151.089C363.159 151.089 365.992 160.208 372.569 157.997C379.941 155.517 376.113 145.242 376.113 145.242Z" fill="white"/>
<path d="M374.97 144.27L374.969 144.271L374.969 144.272L374.969 144.272L374.4 144.939L374.707 145.763L374.707 145.764L374.707 145.764L374.707 145.765L374.707 145.765L374.712 145.779C374.715 145.786 374.718 145.795 374.723 145.807C374.727 145.819 374.731 145.832 374.737 145.848C374.759 145.912 374.792 146.011 374.833 146.14C374.915 146.398 375.026 146.777 375.139 147.24C375.366 148.175 375.59 149.419 375.606 150.708C375.622 152.007 375.425 153.253 374.9 154.269C374.399 155.24 373.56 156.081 372.091 156.575C370.81 157.005 369.793 156.873 368.947 156.486C368.058 156.08 367.267 155.349 366.59 154.462C365.917 153.581 365.412 152.621 365.073 151.865C364.905 151.491 364.782 151.176 364.701 150.958C364.661 150.85 364.632 150.766 364.614 150.712C364.605 150.685 364.598 150.665 364.595 150.654L364.592 150.645L364.591 150.644L364.591 150.643L364.591 150.643L364.591 150.642L364.209 149.413L362.936 149.606L362.936 149.606L362.935 149.606L362.935 149.606L362.934 149.607L362.921 149.608C362.907 149.61 362.884 149.613 362.851 149.618C362.786 149.626 362.685 149.638 362.554 149.65C362.291 149.676 361.908 149.704 361.444 149.715C360.507 149.736 359.286 149.682 358.078 149.404C356.864 149.124 355.759 148.639 354.946 147.87C354.168 147.133 353.559 146.043 353.459 144.324C353.255 140.817 354.676 138.88 356.399 137.95C358.231 136.961 360.622 136.988 362.454 137.898L363.955 138.644L364.528 137.074L364.529 137.074L364.531 137.067C364.534 137.058 364.541 137.042 364.55 137.019C364.568 136.973 364.599 136.9 364.641 136.804C364.726 136.613 364.858 136.334 365.04 136.006C365.409 135.343 365.959 134.516 366.701 133.794C367.439 133.076 368.33 132.496 369.393 132.245C370.411 132.005 371.704 132.038 373.339 132.706C375.234 134.04 376.203 135.397 376.668 136.619C377.145 137.874 377.141 139.115 376.898 140.254C376.652 141.404 376.168 142.418 375.73 143.158C375.514 143.525 375.315 143.813 375.174 144.006C375.103 144.102 375.047 144.174 375.012 144.218C374.994 144.241 374.982 144.256 374.975 144.265L374.97 144.27Z" stroke="black" stroke-width="3"/>
</g>
<g filter="url(#filter1_d_80_64)">
<path d="M473.502 160.056C473.502 160.056 480.19 152.212 471.454 146.198C463.619 142.864 460.51 151.369 460.51 151.369C456.032 149.145 448.882 151.176 449.351 159.225C449.834 167.533 460.549 165.904 460.549 165.904C460.549 165.904 463.381 175.023 469.958 172.811C477.331 170.332 473.502 160.056 473.502 160.056Z" fill="white"/>
<path d="M472.304 144.962L472.18 144.876L472.041 144.817C469.823 143.874 467.834 143.729 466.094 144.139C464.371 144.546 463.016 145.467 461.998 146.459C460.983 147.447 460.266 148.537 459.807 149.364C459.789 149.397 459.771 149.429 459.754 149.461C457.377 148.734 454.637 148.897 452.363 150.125C449.508 151.667 447.589 154.77 447.853 159.312C447.995 161.747 448.906 163.569 450.273 164.862C451.605 166.124 453.269 166.79 454.794 167.141C456.326 167.494 457.814 167.553 458.901 167.528C459.135 167.523 459.352 167.514 459.549 167.502C459.603 167.63 459.662 167.766 459.726 167.908C460.123 168.793 460.737 169.974 461.595 171.097C462.448 172.213 463.598 173.348 465.09 174.029C466.625 174.73 468.429 174.908 470.436 174.233C472.654 173.487 474.101 172.114 474.955 170.461C475.786 168.852 476.014 167.065 475.995 165.485C475.975 163.895 475.703 162.415 475.443 161.346C475.347 160.953 475.252 160.61 475.169 160.332C475.327 160.104 475.51 159.825 475.702 159.5C476.245 158.581 476.887 157.259 477.221 155.696C477.557 154.122 477.587 152.274 476.861 150.367C476.133 148.454 474.694 146.607 472.304 144.962Z" stroke="black" stroke-width="3"/>
</g>
<g filter="url(#filter2_d_80_64)">
<path d="M411.79 161.664C411.79 161.664 411.066 151.382 400.619 153.212C392.693 156.323 396.434 164.569 396.434 164.569C391.681 166.12 388.002 172.579 393.976 177.993C400.141 183.582 406.645 174.913 406.645 174.913C406.645 174.913 415.055 179.434 418.198 173.248C421.722 166.314 411.79 161.664 411.79 161.664Z" fill="white"/>
<path d="M410.294 161.772L410.294 161.774L410.294 161.774L410.294 161.774L410.356 162.649L411.152 163.022L411.153 163.022L411.154 163.022L411.154 163.022L411.154 163.023L411.167 163.029C411.174 163.032 411.183 163.037 411.195 163.042C411.205 163.047 411.218 163.054 411.233 163.061C411.294 163.091 411.387 163.138 411.506 163.202C411.746 163.329 412.09 163.521 412.496 163.773C413.313 164.281 414.344 165.011 415.258 165.92C416.18 166.836 416.913 167.863 417.25 168.955C417.573 169.999 417.563 171.187 416.861 172.569C416.249 173.773 415.431 174.391 414.556 174.708C413.637 175.041 412.561 175.074 411.456 174.915C410.359 174.759 409.326 174.427 408.554 174.125C408.172 173.976 407.863 173.838 407.653 173.739C407.549 173.689 407.469 173.65 407.418 173.624C407.393 173.611 407.375 173.602 407.364 173.596L407.355 173.592L407.355 173.591L407.354 173.591L407.354 173.591L407.353 173.59L406.219 172.981L405.447 174.011L405.446 174.011L405.446 174.012L405.446 174.012L405.445 174.013L405.438 174.023C405.429 174.034 405.414 174.053 405.394 174.078C405.353 174.13 405.29 174.209 405.205 174.31C405.035 174.512 404.781 174.801 404.458 175.134C403.804 175.805 402.895 176.622 401.839 177.27C400.776 177.921 399.648 178.35 398.529 178.37C397.457 178.389 396.259 178.039 394.983 176.882C392.381 174.523 392.038 172.145 392.616 170.275C393.23 168.285 394.955 166.63 396.899 165.995L398.493 165.476L397.802 163.954L397.802 163.953L397.799 163.946C397.795 163.938 397.788 163.922 397.779 163.899C397.76 163.853 397.73 163.78 397.694 163.682C397.62 163.486 397.519 163.194 397.419 162.833C397.217 162.101 397.031 161.125 397.054 160.091C397.077 159.062 397.307 158.023 397.89 157.099C398.448 156.215 399.394 155.333 401.028 154.664C403.315 154.287 404.957 154.577 406.145 155.123C407.365 155.684 408.232 156.573 408.856 157.556C409.486 158.548 409.852 159.611 410.058 160.446C410.16 160.859 410.22 161.204 410.254 161.441C410.272 161.559 410.282 161.649 410.288 161.706C410.291 161.734 410.293 161.754 410.294 161.765L410.294 161.772Z" stroke="black" stroke-width="3"/>
</g>
<g filter="url(#filter3_d_80_64)">
<path d="M224.377 164.857C224.377 164.857 226.877 154.857 216.377 153.357C207.877 153.857 208.877 162.857 208.877 162.857C203.877 162.857 198.377 167.857 202.377 174.857C206.505 182.082 215.377 175.857 215.377 175.857C215.377 175.857 221.97 182.764 226.877 177.857C232.377 172.357 224.377 164.857 224.377 164.857Z" fill="white"/>
<path d="M222.921 164.496L222.921 164.497L222.92 164.497L222.92 164.498L222.708 165.349L223.349 165.95L223.35 165.95L223.35 165.951L223.35 165.951L223.351 165.951L223.361 165.961C223.367 165.967 223.374 165.974 223.383 165.982C223.392 165.991 223.402 166.001 223.414 166.012C223.462 166.06 223.536 166.134 223.63 166.231C223.818 166.426 224.086 166.716 224.393 167.081C225.013 167.817 225.766 168.831 226.354 169.978C226.946 171.135 227.325 172.338 227.307 173.482C227.289 174.574 226.912 175.701 225.816 176.797C224.861 177.752 223.891 178.085 222.961 178.115C221.984 178.147 220.951 177.844 219.949 177.351C218.955 176.862 218.076 176.227 217.436 175.701C217.119 175.44 216.868 175.213 216.699 175.054C216.615 174.974 216.552 174.912 216.512 174.872C216.491 174.852 216.477 174.837 216.469 174.828L216.462 174.821L216.461 174.821L216.461 174.82L216.461 174.82L216.46 174.82L215.571 173.888L214.517 174.628L214.517 174.628L214.516 174.629L214.516 174.629L214.515 174.629L214.505 174.636C214.493 174.644 214.473 174.658 214.446 174.676C214.391 174.712 214.307 174.768 214.194 174.837C213.97 174.977 213.639 175.173 213.229 175.389C212.399 175.825 211.282 176.32 210.076 176.608C208.864 176.897 207.659 176.955 206.589 176.627C205.564 176.313 204.533 175.608 203.679 174.113C201.937 171.064 202.348 168.696 203.477 167.097C204.678 165.397 206.831 164.357 208.877 164.357H210.553L210.368 162.696L210.368 162.695L210.367 162.688C210.366 162.679 210.365 162.662 210.363 162.637C210.359 162.588 210.354 162.509 210.349 162.404C210.34 162.195 210.335 161.887 210.352 161.512C210.386 160.754 210.511 159.768 210.854 158.792C211.196 157.82 211.736 156.905 212.577 156.207C213.382 155.539 214.554 154.994 216.315 154.864C218.607 155.216 220.078 156 221.038 156.888C222.024 157.8 222.572 158.913 222.861 160.041C223.152 161.18 223.17 162.304 223.107 163.162C223.076 163.586 223.026 163.933 222.986 164.169C222.965 164.286 222.947 164.375 222.935 164.431C222.929 164.459 222.925 164.478 222.923 164.489L222.921 164.496Z" stroke="black" stroke-width="3"/>
</g>
<g filter="url(#filter4_d_80_64)">
<path d="M227.243 136.681C227.243 136.681 218.846 130.702 213.616 139.929C210.977 148.025 219.72 150.38 219.72 150.38C217.894 155.035 220.54 161.981 228.518 160.814C236.752 159.609 234.196 149.077 234.196 149.077C234.196 149.077 243.034 145.461 240.258 139.102C237.146 131.973 227.243 136.681 227.243 136.681Z" fill="white"/>
<path d="M226.375 137.905L226.376 137.906L226.376 137.906L226.377 137.906L227.091 138.415L227.885 138.037L227.885 138.037L227.886 138.037L227.886 138.036L227.887 138.036L227.9 138.03C227.907 138.027 227.916 138.023 227.927 138.017C227.938 138.012 227.951 138.007 227.967 138C228.028 137.972 228.124 137.93 228.249 137.879C228.5 137.775 228.867 137.631 229.319 137.478C230.231 137.17 231.45 136.839 232.733 136.711C234.025 136.582 235.284 136.669 236.342 137.104C237.352 137.519 238.263 138.282 238.883 139.702C239.424 140.94 239.38 141.964 239.068 142.841C238.741 143.762 238.082 144.614 237.257 145.366C236.439 146.112 235.526 146.699 234.803 147.103C234.444 147.303 234.141 147.453 233.931 147.552C233.827 147.602 233.746 147.638 233.693 147.661C233.667 147.672 233.648 147.68 233.637 147.685L233.628 147.689L233.627 147.689L233.627 147.689L233.627 147.689L233.626 147.69L232.434 148.177L232.738 149.428L232.738 149.429L232.738 149.429L232.738 149.43L232.739 149.431L232.741 149.443C232.745 149.457 232.75 149.48 232.757 149.512C232.771 149.576 232.791 149.675 232.815 149.805C232.863 150.065 232.925 150.445 232.976 150.906C233.079 151.837 233.131 153.058 232.959 154.285C232.786 155.519 232.4 156.663 231.704 157.539C231.037 158.379 230.005 159.08 228.301 159.33C224.826 159.838 222.772 158.59 221.696 156.956C220.551 155.217 220.37 152.832 221.117 150.928L221.729 149.368L220.115 148.933L220.114 148.933L220.108 148.931C220.099 148.929 220.082 148.924 220.058 148.917C220.011 148.902 219.935 148.878 219.836 148.845C219.638 148.777 219.349 148.669 219.007 148.516C218.314 148.207 217.442 147.73 216.658 147.055C215.878 146.382 215.223 145.545 214.881 144.507C214.553 143.514 214.473 142.223 214.996 140.537C216.16 138.532 217.427 137.449 218.605 136.879C219.813 136.294 221.05 136.19 222.206 136.334C223.373 136.478 224.426 136.873 225.201 137.244C225.584 137.428 225.889 137.601 226.094 137.725C226.196 137.787 226.272 137.836 226.319 137.867C226.343 137.883 226.36 137.894 226.369 137.901L226.375 137.905Z" stroke="black" stroke-width="3"/>
</g>
<g filter="url(#filter5_d_80_64)">
<path d="M191.721 124.841C191.721 124.841 197.449 117.831 190.427 112.876C184.072 110.221 181.272 117.696 181.272 117.696C177.649 115.901 171.705 117.881 171.862 124.851C172.024 132.046 180.891 130.308 180.891 130.308C180.891 130.308 182.965 138.135 188.442 136.017C194.582 133.642 191.721 124.841 191.721 124.841Z" fill="white"/>
<path d="M191.292 111.651L191.158 111.556L191.006 111.492C189.129 110.708 187.415 110.639 185.907 111.066C184.426 111.485 183.262 112.349 182.391 113.245C181.531 114.129 180.911 115.091 180.508 115.822C178.52 115.308 176.266 115.577 174.382 116.697C171.947 118.146 170.273 120.921 170.362 124.885C170.411 127.02 171.121 128.647 172.284 129.803C173.414 130.926 174.844 131.478 176.132 131.746C177.426 132.015 178.683 132.019 179.594 131.964C179.688 131.959 179.778 131.952 179.865 131.945C179.879 131.981 179.893 132.018 179.908 132.054C180.214 132.821 180.696 133.85 181.39 134.826C182.078 135.793 183.039 136.8 184.334 137.386C185.681 137.994 187.256 138.084 188.983 137.416C192.895 135.903 193.826 132.313 193.884 129.57C193.913 128.178 193.729 126.889 193.543 125.959C193.48 125.644 193.416 125.366 193.359 125.134C193.491 124.937 193.643 124.697 193.803 124.422C194.278 123.606 194.847 122.433 195.168 121.058C195.491 119.677 195.575 118.044 195.015 116.363C194.451 114.666 193.274 113.049 191.292 111.651Z" stroke="black" stroke-width="3"/>
</g>
<g filter="url(#filter6_d_80_64)">
<path d="M319.637 151.048C319.637 151.048 329.213 147.235 324.297 137.837C318.925 131.231 312.205 137.3 312.205 137.3C309.284 133.242 302.013 131.699 298.668 139.035C295.216 146.606 305.451 150.17 305.451 150.17C305.451 150.17 303.697 159.556 310.546 160.672C318.223 161.923 319.637 151.048 319.637 151.048Z" fill="white"/>
<path d="M319.079 149.656L319.078 149.656L319.078 149.656L319.077 149.656L318.263 149.981L318.149 150.853L318.149 150.853L318.149 150.854L318.149 150.854L318.149 150.855L318.147 150.869C318.146 150.877 318.145 150.887 318.143 150.899C318.141 150.911 318.139 150.925 318.136 150.942C318.126 151.009 318.109 151.111 318.085 151.245C318.036 151.512 317.958 151.898 317.841 152.361C317.606 153.294 317.223 154.498 316.635 155.645C316.043 156.801 315.287 157.811 314.348 158.465C313.451 159.089 312.317 159.441 310.787 159.191C309.454 158.974 308.617 158.382 308.049 157.645C307.452 156.87 307.095 155.855 306.91 154.754C306.726 153.661 306.728 152.577 306.781 151.75C306.807 151.34 306.845 151.004 306.876 150.774C306.891 150.659 306.905 150.572 306.914 150.515C306.918 150.487 306.922 150.467 306.924 150.455L306.926 150.445L306.926 150.445L306.926 150.444L306.926 150.444L306.926 150.443L307.162 149.177L305.947 148.754L305.946 148.754L305.945 148.754L305.945 148.754L305.944 148.753L305.932 148.749C305.919 148.744 305.897 148.736 305.866 148.725C305.805 148.701 305.71 148.665 305.588 148.615C305.343 148.514 304.991 148.36 304.576 148.153C303.738 147.734 302.683 147.117 301.745 146.307C300.802 145.492 300.051 144.547 299.692 143.487C299.348 142.472 299.318 141.224 300.033 139.657C301.49 136.461 303.652 135.413 305.609 135.395C307.691 135.375 309.792 136.516 310.987 138.176L311.966 139.536L313.207 138.416L313.207 138.416L313.213 138.411C313.22 138.405 313.233 138.394 313.252 138.378C313.289 138.345 313.35 138.295 313.432 138.23C313.597 138.101 313.844 137.916 314.158 137.711C314.794 137.296 315.667 136.822 316.66 136.53C317.647 136.24 318.706 136.143 319.764 136.418C320.776 136.681 321.904 137.314 323.037 138.668C324.091 140.733 324.313 142.385 324.154 143.683C323.99 145.016 323.407 146.111 322.66 147.005C321.906 147.906 321.003 148.578 320.271 149.028C319.909 149.25 319.598 149.412 319.383 149.517C319.275 149.569 319.193 149.606 319.141 149.629C319.115 149.641 319.096 149.649 319.086 149.653L319.079 149.656Z" stroke="black" stroke-width="3"/>
</g>
<g filter="url(#filter7_d_80_64)">
<path d="M303.859 141.274C303.859 141.274 312.281 133.651 302.26 125.403C293.149 120.313 288.941 129.297 288.941 129.297C283.753 126.03 275.132 127.065 275.203 136.157C275.276 145.543 288.109 145.576 288.109 145.576C288.109 145.576 290.926 156.277 298.876 154.941C307.789 153.443 303.859 141.274 303.859 141.274Z" fill="white"/>
<path d="M302.85 140.164L302.849 140.165L302.849 140.165L302.848 140.166L302.133 140.813L302.431 141.734L302.431 141.734L302.431 141.734L302.431 141.735L302.432 141.736L302.437 141.754C302.443 141.772 302.451 141.8 302.463 141.839C302.486 141.916 302.52 142.035 302.561 142.189C302.644 142.497 302.755 142.945 302.862 143.489C303.078 144.586 303.27 146.028 303.211 147.485C303.151 148.954 302.84 150.313 302.16 151.352C301.516 152.334 300.466 153.152 298.628 153.461C295.502 153.987 293.31 152.218 291.753 149.919C290.985 148.783 290.431 147.593 290.069 146.676C289.889 146.221 289.759 145.84 289.675 145.577C289.633 145.446 289.603 145.345 289.584 145.279C289.574 145.247 289.568 145.223 289.564 145.208L289.56 145.194L289.56 145.194L289.56 145.194L289.56 145.193L289.559 145.192L289.266 144.079L288.115 144.076L288.115 144.076L288.114 144.076L288.113 144.076L288.113 144.076L288.094 144.076C288.076 144.076 288.046 144.075 288.006 144.074C287.925 144.072 287.801 144.068 287.64 144.059C287.318 144.041 286.851 144.006 286.288 143.936C285.154 143.795 283.668 143.517 282.201 142.978C279.249 141.894 276.732 139.93 276.703 136.146C276.687 134.112 277.156 132.65 277.84 131.62C278.521 130.594 279.476 129.903 280.599 129.507C282.899 128.695 285.875 129.139 288.142 130.566L289.579 131.471L290.297 129.938L290.298 129.937L290.298 129.937L290.301 129.93C290.305 129.921 290.314 129.904 290.326 129.88C290.35 129.832 290.391 129.756 290.446 129.657C290.558 129.458 290.732 129.17 290.967 128.836C291.443 128.16 292.146 127.33 293.072 126.65C293.989 125.976 295.107 125.461 296.448 125.36C297.759 125.261 299.4 125.548 301.411 126.648C303.679 128.539 304.809 130.308 305.313 131.833C305.823 133.376 305.733 134.788 305.377 136.013C305.016 137.256 304.381 138.304 303.818 139.054C303.54 139.425 303.286 139.713 303.107 139.904C303.018 139.999 302.948 140.07 302.903 140.113C302.88 140.135 302.865 140.15 302.856 140.159L302.85 140.164Z" stroke="black" stroke-width="3"/>
</g>
<g filter="url(#filter8_d_80_64)">
<path d="M164.637 162.048C164.637 162.048 174.213 158.235 169.297 148.837C163.925 142.231 157.205 148.3 157.205 148.3C154.284 144.242 147.013 142.699 143.668 150.035C140.216 157.606 150.451 161.17 150.451 161.17C150.451 161.17 148.697 170.556 155.546 171.672C163.223 172.923 164.637 162.048 164.637 162.048Z" fill="white"/>
<path d="M164.079 160.656L164.078 160.656L164.078 160.656L164.077 160.656L163.263 160.981L163.149 161.853L163.149 161.853L163.149 161.854L163.149 161.854L163.149 161.855L163.147 161.869C163.146 161.877 163.145 161.887 163.143 161.899C163.141 161.911 163.139 161.925 163.136 161.942C163.126 162.009 163.109 162.111 163.085 162.245C163.036 162.512 162.958 162.898 162.841 163.361C162.606 164.294 162.223 165.498 161.635 166.645C161.043 167.801 160.287 168.811 159.348 169.465C158.451 170.089 157.317 170.441 155.787 170.191C154.454 169.974 153.617 169.382 153.049 168.645C152.452 167.87 152.095 166.855 151.91 165.754C151.726 164.661 151.728 163.577 151.781 162.75C151.807 162.34 151.845 162.004 151.876 161.774C151.891 161.659 151.905 161.572 151.914 161.515C151.918 161.487 151.922 161.467 151.924 161.455L151.926 161.445L151.926 161.445L151.926 161.444L151.926 161.444L151.926 161.443L152.162 160.177L150.947 159.754L150.946 159.754L150.945 159.754L150.945 159.754L150.944 159.753L150.932 159.749C150.919 159.744 150.897 159.736 150.866 159.725C150.805 159.701 150.71 159.665 150.588 159.615C150.343 159.514 149.991 159.36 149.576 159.153C148.738 158.734 147.683 158.117 146.745 157.307C145.802 156.492 145.051 155.547 144.692 154.487C144.348 153.472 144.318 152.224 145.033 150.657C146.49 147.461 148.652 146.413 150.609 146.395C152.691 146.375 154.792 147.516 155.987 149.176L156.966 150.536L158.207 149.416L158.207 149.416L158.213 149.411C158.22 149.405 158.233 149.394 158.252 149.378C158.289 149.345 158.35 149.295 158.432 149.23C158.597 149.101 158.844 148.916 159.158 148.711C159.794 148.296 160.667 147.822 161.66 147.53C162.647 147.24 163.706 147.143 164.764 147.418C165.776 147.681 166.904 148.314 168.037 149.668C169.091 151.733 169.313 153.385 169.154 154.683C168.99 156.016 168.407 157.111 167.66 158.005C166.906 158.906 166.003 159.578 165.271 160.028C164.909 160.25 164.598 160.412 164.383 160.517C164.275 160.569 164.193 160.606 164.141 160.629C164.115 160.641 164.096 160.649 164.086 160.653L164.079 160.656Z" stroke="black" stroke-width="3"/>
</g>
<g filter="url(#filter9_d_80_64)">
<path d="M424.244 168.083C424.244 168.083 417.862 172.619 423.235 178.697C428.428 182.627 432.28 176.931 432.28 176.931C435.19 179.413 440.854 179.254 441.974 173.225C443.131 167.002 434.9 166.195 434.9 166.195C434.9 166.195 434.465 158.933 429.192 159.332C423.282 159.78 424.244 168.083 424.244 168.083Z" fill="white"/>
<path d="M422.111 179.69L422.21 179.802L422.33 179.893C423.85 181.043 425.367 181.554 426.813 181.579C428.244 181.603 429.479 181.151 430.456 180.586C431.342 180.074 432.049 179.449 432.551 178.933C434.21 179.854 436.253 180.205 438.164 179.724C440.712 179.083 442.794 177.027 443.449 173.499C443.804 171.59 443.446 169.982 442.62 168.692C441.819 167.442 440.652 166.603 439.555 166.041C438.451 165.476 437.33 165.146 436.504 164.957C436.414 164.936 436.327 164.917 436.244 164.899C436.238 164.866 436.232 164.832 436.226 164.797C436.09 164.053 435.844 163.038 435.399 162.016C434.958 161.001 434.284 159.894 433.245 159.064C432.169 158.205 430.779 157.708 429.079 157.837C427.207 157.978 425.797 158.765 424.8 159.897C423.837 160.99 423.322 162.331 423.041 163.534C422.757 164.747 422.688 165.92 422.686 166.774C422.685 167.012 422.69 167.229 422.696 167.418C422.564 167.537 422.418 167.676 422.264 167.832C421.676 168.427 420.932 169.315 420.376 170.453C419.816 171.602 419.437 173.03 419.637 174.657C419.838 176.289 420.604 177.985 422.111 179.69Z" stroke="black" stroke-width="3"/>
</g>
<g filter="url(#filter10_d_80_64)">
<path d="M408.374 135.023C408.374 135.023 403.793 141.371 410.836 145.396C417.018 147.445 418.831 140.813 418.831 140.813C422.385 142.225 427.697 140.252 426.816 134.183C425.908 127.919 417.856 129.805 417.856 129.805C417.856 129.805 415.106 123.069 410.242 125.145C404.791 127.471 408.374 135.023 408.374 135.023Z" fill="white"/>
<path d="M410.092 146.698L410.222 146.773L410.364 146.82C412.174 147.42 413.774 147.415 415.152 146.972C416.514 146.535 417.538 145.71 418.281 144.86C418.955 144.09 419.423 143.271 419.732 142.621C421.6 142.958 423.647 142.633 425.301 141.563C427.507 140.136 428.816 137.519 428.301 133.968C428.022 132.046 427.165 130.639 425.968 129.684C424.808 128.758 423.433 128.339 422.213 128.161C420.986 127.981 419.819 128.029 418.975 128.116C418.884 128.125 418.795 128.135 418.711 128.145C418.694 128.115 418.678 128.085 418.661 128.055C418.292 127.394 417.733 126.512 416.983 125.687C416.238 124.869 415.244 124.037 413.993 123.586C412.698 123.119 411.222 123.096 409.654 123.765C407.927 124.502 406.845 125.7 406.266 127.093C405.706 128.438 405.65 129.874 405.771 131.103C405.893 132.342 406.205 133.476 406.478 134.285C406.554 134.511 406.628 134.714 406.695 134.891C406.609 135.047 406.515 135.225 406.419 135.422C406.054 136.175 405.635 137.255 405.476 138.511C405.315 139.779 405.416 141.254 406.129 142.73C406.844 144.21 408.116 145.57 410.092 146.698Z" stroke="black" stroke-width="3"/>
</g>
<g filter="url(#filter11_d_80_64)">
<path d="M353.374 130.023C353.374 130.023 348.793 136.371 355.836 140.396C362.018 142.445 363.831 135.813 363.831 135.813C367.385 137.225 372.697 135.252 371.816 129.183C370.908 122.919 362.856 124.805 362.856 124.805C362.856 124.805 360.106 118.069 355.242 120.145C349.791 122.471 353.374 130.023 353.374 130.023Z" fill="white"/>
<path d="M355.092 141.698L355.222 141.773L355.364 141.82C357.174 142.42 358.774 142.415 360.152 141.972C361.514 141.535 362.538 140.71 363.281 139.86C363.955 139.09 364.423 138.271 364.732 137.621C366.6 137.958 368.647 137.633 370.301 136.563C372.507 135.136 373.816 132.519 373.301 128.968C373.022 127.046 372.165 125.639 370.968 124.684C369.808 123.758 368.433 123.339 367.213 123.161C365.986 122.981 364.819 123.029 363.975 123.116C363.884 123.125 363.795 123.135 363.711 123.145C363.694 123.115 363.678 123.085 363.661 123.055C363.292 122.394 362.733 121.512 361.983 120.687C361.238 119.869 360.244 119.037 358.993 118.586C357.698 118.119 356.222 118.096 354.654 118.765C352.927 119.502 351.845 120.7 351.266 122.093C350.706 123.438 350.65 124.874 350.771 126.103C350.893 127.342 351.205 128.476 351.478 129.285C351.554 129.511 351.628 129.714 351.695 129.891C351.609 130.047 351.515 130.225 351.419 130.422C351.054 131.175 350.635 132.255 350.476 133.511C350.315 134.779 350.416 136.254 351.129 137.73C351.844 139.21 353.116 140.57 355.092 141.698Z" stroke="black" stroke-width="3"/>
</g>
<g filter="url(#filter12_d_80_64)">
<path d="M324.256 170.763C324.256 170.763 320.345 177.545 327.762 180.832C334.121 182.24 335.248 175.458 335.248 175.458C338.928 176.501 344.011 173.997 342.517 168.049C340.975 161.91 333.157 164.606 333.157 164.606C333.157 164.606 329.735 158.186 325.108 160.746C319.922 163.616 324.256 170.763 324.256 170.763Z" fill="white"/>
<path d="M327.154 182.203L327.291 182.264L327.437 182.296C329.299 182.709 330.89 182.541 332.216 181.96C333.526 181.387 334.461 180.461 335.113 179.54C335.705 178.705 336.088 177.843 336.329 177.164C338.221 177.31 340.225 176.778 341.762 175.545C343.81 173.9 344.846 171.164 343.972 167.684C343.498 165.8 342.503 164.488 341.215 163.66C339.966 162.857 338.556 162.581 337.324 162.527C336.085 162.473 334.929 162.64 334.098 162.812C334.008 162.831 333.921 162.85 333.838 162.869C333.819 162.841 333.799 162.812 333.779 162.783C333.346 162.164 332.699 161.343 331.869 160.599C331.045 159.861 329.971 159.135 328.68 158.814C327.345 158.481 325.874 158.608 324.382 159.434C322.74 160.343 321.785 161.645 321.351 163.09C320.931 164.485 321.022 165.918 321.267 167.129C321.515 168.35 321.941 169.445 322.295 170.223C322.393 170.439 322.487 170.634 322.572 170.803C322.502 170.967 322.427 171.154 322.352 171.36C322.065 172.146 321.759 173.263 321.728 174.529C321.698 175.806 321.949 177.263 322.808 178.659C323.67 180.059 325.074 181.281 327.154 182.203Z" stroke="black" stroke-width="3"/>
</g>
<g filter="url(#filter13_d_80_64)">
<path d="M366.978 71.664C366.978 71.664 359.304 70.116 358.55 78.1928C359.239 84.669 366.027 83.579 366.027 83.579C366.21 87.3992 370.202 91.4204 375.364 88.1108C380.693 84.6947 375.648 78.142 375.648 78.142C375.648 78.142 380.645 72.8543 376.745 69.2831C372.374 65.2801 366.978 71.664 366.978 71.664Z" fill="white"/>
<path d="M357.056 78.0533L357.042 78.2025L357.058 78.3516C357.26 80.2475 357.926 81.7026 358.898 82.7743C359.859 83.8338 361.034 84.4253 362.114 84.7508C363.094 85.0459 364.033 85.134 364.753 85.1465C365.218 86.987 366.36 88.7168 368.018 89.7811C370.229 91.1998 373.153 91.3105 376.174 89.3736C377.809 88.3254 378.736 86.9638 379.111 85.4792C379.474 84.04 379.287 82.6147 378.946 81.43C378.603 80.2388 378.076 79.1955 377.649 78.4632C377.602 78.3837 377.557 78.3074 377.513 78.2345C377.533 78.2073 377.554 78.1796 377.575 78.1514C378.024 77.543 378.596 76.6689 379.037 75.6452C379.475 74.6291 379.821 73.3797 379.714 72.0541C379.605 70.6823 379.016 69.3285 377.758 68.1769C376.374 66.9091 374.835 66.4193 373.327 66.4671C371.871 66.5133 370.541 67.0556 369.472 67.6738C368.394 68.2971 367.491 69.0496 366.866 69.6326C366.692 69.7949 366.538 69.9462 366.405 70.0808C366.227 70.0663 366.026 70.0545 365.806 70.0488C364.97 70.0272 363.814 70.0923 362.604 70.4666C361.383 70.8442 360.082 71.5459 359.032 72.805C357.98 74.0679 357.268 75.7878 357.056 78.0533Z" stroke="black" stroke-width="3"/>
</g>
<path d="M381.425 145.78L381.29 145.714L381.144 145.675C378.813 145.064 376.823 145.209 375.161 145.868C373.516 146.52 372.309 147.628 371.445 148.757C370.584 149.882 370.034 151.065 369.7 151.95C369.686 151.985 369.674 152.019 369.661 152.053C367.203 151.679 364.517 152.238 362.445 153.783C359.844 155.723 358.395 159.071 359.316 163.528C359.81 165.916 360.976 167.586 362.516 168.668C364.017 169.723 365.76 170.14 367.32 170.266C368.887 170.393 370.368 170.235 371.44 170.053C371.67 170.014 371.884 169.973 372.077 169.933C372.149 170.052 372.227 170.178 372.311 170.309C372.832 171.127 373.612 172.207 374.623 173.193C375.629 174.174 376.932 175.129 378.507 175.587C380.127 176.057 381.938 175.971 383.826 175.012C385.912 173.952 387.144 172.384 387.749 170.624C388.338 168.912 388.305 167.11 388.056 165.55C387.806 163.98 387.321 162.555 386.909 161.535C386.757 161.16 386.613 160.834 386.491 160.571C386.614 160.323 386.754 160.02 386.897 159.671C387.302 158.683 387.745 157.282 387.848 155.686C387.953 154.08 387.714 152.248 386.719 150.466C385.721 148.679 384.029 147.061 381.425 145.78Z" fill="white" stroke="black" stroke-width="3"/>
<path d="M425.83 93.8595L425.736 93.7226L425.614 93.6096C424.578 92.6495 423.449 92.1778 422.317 92.0966C421.214 92.0174 420.228 92.3169 419.45 92.6927C418.849 92.9831 418.335 93.3364 417.935 93.6542C416.791 92.9881 415.382 92.7183 414.005 92.9813C412.013 93.3617 410.25 94.8145 409.362 97.3771C408.874 98.7841 408.929 100.064 409.435 101.16C409.923 102.213 410.752 102.929 411.52 103.405C412.202 103.828 412.908 104.106 413.467 104.285C413.495 104.796 413.568 105.429 413.742 106.078C413.952 106.862 414.34 107.781 415.082 108.51C415.866 109.28 416.936 109.727 418.259 109.699C421.263 109.634 422.756 107.43 423.436 105.712C423.783 104.834 423.969 103.979 424.07 103.355C424.089 103.237 424.105 103.126 424.118 103.023C424.202 102.959 424.291 102.888 424.385 102.81C424.878 102.401 425.522 101.783 426.06 100.968C426.6 100.15 427.061 99.092 427.106 97.8353C427.151 96.5614 426.765 95.2181 425.83 93.8595Z" fill="white" stroke="black" stroke-width="3"/>
<ellipse cx="239.852" cy="32.5826" rx="51.1524" ry="10.7489" transform="rotate(154.758 239.852 32.5826)" fill="black"/>
<defs>
<filter id="filter0_d_80_64" x="347.939" y="130.609" width="34.6208" height="35.7337" filterUnits="userSpaceOnUse" color-interpolation-filters="sRGB">
<feFlood flood-opacity="0" result="BackgroundImageFix"/>
<feColorMatrix in="SourceAlpha" type="matrix" values="0 0 0 0 0 0 0 0 0 0 0 0 0 0 0 0 0 0 127 0" result="hardAlpha"/>
<feOffset dy="4"/>
<feGaussianBlur stdDeviation="2"/>
<feComposite in2="hardAlpha" operator="out"/>
<feColorMatrix type="matrix" values="0 0 0 0 0 0 0 0 0 0 0 0 0 0 0 0 0 0 0.25 0"/>
<feBlend mode="normal" in2="BackgroundImageFix" result="effect1_dropShadow_80_64"/>
<feBlend mode="normal" in="SourceGraphic" in2="effect1_dropShadow_80_64" result="shape"/>
</filter>
<filter id="filter1_d_80_64" x="442.329" y="142.423" width="40.6201" height="41.7338" filterUnits="userSpaceOnUse" color-interpolation-filters="sRGB">
<feFlood flood-opacity="0" result="BackgroundImageFix"/>
<feColorMatrix in="SourceAlpha" type="matrix" values="0 0 0 0 0 0 0 0 0 0 0 0 0 0 0 0 0 0 127 0" result="hardAlpha"/>
<feOffset dy="4"/>
<feGaussianBlur stdDeviation="2"/>
<feComposite in2="hardAlpha" operator="out"/>
<feColorMatrix type="matrix" values="0 0 0 0 0 0 0 0 0 0 0 0 0 0 0 0 0 0 0.25 0"/>
<feBlend mode="normal" in2="BackgroundImageFix" result="effect1_dropShadow_80_64"/>
<feBlend mode="normal" in="SourceGraphic" in2="effect1_dropShadow_80_64" result="shape"/>
</filter>
<filter id="filter2_d_80_64" x="386.875" y="152.994" width="36.0798" height="34.8772" filterUnits="userSpaceOnUse" color-interpolation-filters="sRGB">
<feFlood flood-opacity="0" result="BackgroundImageFix"/>
<feColorMatrix in="SourceAlpha" type="matrix" values="0 0 0 0 0 0 0 0 0 0 0 0 0 0 0 0 0 0 127 0" result="hardAlpha"/>
<feOffset dy="4"/>
<feGaussianBlur stdDeviation="2"/>
<feComposite in2="hardAlpha" operator="out"/>
<feColorMatrix type="matrix" values="0 0 0 0 0 0 0 0 0 0 0 0 0 0 0 0 0 0 0.25 0"/>
<feBlend mode="normal" in2="BackgroundImageFix" result="effect1_dropShadow_80_64"/>
<feBlend mode="normal" in="SourceGraphic" in2="effect1_dropShadow_80_64" result="shape"/>
</filter>
<filter id="filter3_d_80_64" x="197" y="153.357" width="35.8071" height="34.2606" filterUnits="userSpaceOnUse" color-interpolation-filters="sRGB">
<feFlood flood-opacity="0" result="BackgroundImageFix"/>
<feColorMatrix in="SourceAlpha" type="matrix" values="0 0 0 0 0 0 0 0 0 0 0 0 0 0 0 0 0 0 127 0" result="hardAlpha"/>
<feOffset dy="4"/>
<feGaussianBlur stdDeviation="2"/>
<feComposite in2="hardAlpha" operator="out"/>
<feColorMatrix type="matrix" values="0 0 0 0 0 0 0 0 0 0 0 0 0 0 0 0 0 0 0.25 0"/>
<feBlend mode="normal" in2="BackgroundImageFix" result="effect1_dropShadow_80_64"/>
<feBlend mode="normal" in="SourceGraphic" in2="effect1_dropShadow_80_64" result="shape"/>
</filter>
<filter id="filter4_d_80_64" x="209.119" y="134.776" width="35.6782" height="34.1678" filterUnits="userSpaceOnUse" color-interpolation-filters="sRGB">
<feFlood flood-opacity="0" result="BackgroundImageFix"/>
<feColorMatrix in="SourceAlpha" type="matrix" values="0 0 0 0 0 0 0 0 0 0 0 0 0 0 0 0 0 0 127 0" result="hardAlpha"/>
<feOffset dy="4"/>
<feGaussianBlur stdDeviation="2"/>
<feComposite in2="hardAlpha" operator="out"/>
<feColorMatrix type="matrix" values="0 0 0 0 0 0 0 0 0 0 0 0 0 0 0 0 0 0 0.25 0"/>
<feBlend mode="normal" in2="BackgroundImageFix" result="effect1_dropShadow_80_64"/>
<feBlend mode="normal" in="SourceGraphic" in2="effect1_dropShadow_80_64" result="shape"/>
</filter>
<filter id="filter5_d_80_64" x="164.859" y="109.306" width="36.0642" height="38.075" filterUnits="userSpaceOnUse" color-interpolation-filters="sRGB">
<feFlood flood-opacity="0" result="BackgroundImageFix"/>
<feColorMatrix in="SourceAlpha" type="matrix" values="0 0 0 0 0 0 0 0 0 0 0 0 0 0 0 0 0 0 127 0" result="hardAlpha"/>
<feOffset dy="4"/>
<feGaussianBlur stdDeviation="2"/>
<feComposite in2="hardAlpha" operator="out"/>
<feColorMatrix type="matrix" values="0 0 0 0 0 0 0 0 0 0 0 0 0 0 0 0 0 0 0.25 0"/>
<feBlend mode="normal" in2="BackgroundImageFix" result="effect1_dropShadow_80_64"/>
<feBlend mode="normal" in="SourceGraphic" in2="effect1_dropShadow_80_64" result="shape"/>
</filter>
<filter id="filter6_d_80_64" x="293.957" y="133.894" width="35.7437" height="34.8777" filterUnits="userSpaceOnUse" color-interpolation-filters="sRGB">
<feFlood flood-opacity="0" result="BackgroundImageFix"/>
<feColorMatrix in="SourceAlpha" type="matrix" values="0 0 0 0 0 0 0 0 0 0 0 0 0 0 0 0 0 0 127 0" result="hardAlpha"/>
<feOffset dy="4"/>
<feGaussianBlur stdDeviation="2"/>
<feComposite in2="hardAlpha" operator="out"/>
<feColorMatrix type="matrix" values="0 0 0 0 0 0 0 0 0 0 0 0 0 0 0 0 0 0 0.25 0"/>
<feBlend mode="normal" in2="BackgroundImageFix" result="effect1_dropShadow_80_64"/>
<feBlend mode="normal" in="SourceGraphic" in2="effect1_dropShadow_80_64" result="shape"/>
</filter>
<filter id="filter7_d_80_64" x="271.202" y="123.841" width="39.967" height="39.2147" filterUnits="userSpaceOnUse" color-interpolation-filters="sRGB">
<feFlood flood-opacity="0" result="BackgroundImageFix"/>
<feColorMatrix in="SourceAlpha" type="matrix" values="0 0 0 0 0 0 0 0 0 0 0 0 0 0 0 0 0 0 127 0" result="hardAlpha"/>
<feOffset dy="4"/>
<feGaussianBlur stdDeviation="2"/>
<feComposite in2="hardAlpha" operator="out"/>
<feColorMatrix type="matrix" values="0 0 0 0 0 0 0 0 0 0 0 0 0 0 0 0 0 0 0.25 0"/>
<feBlend mode="normal" in2="BackgroundImageFix" result="effect1_dropShadow_80_64"/>
<feBlend mode="normal" in="SourceGraphic" in2="effect1_dropShadow_80_64" result="shape"/>
</filter>
<filter id="filter8_d_80_64" x="138.957" y="144.894" width="35.7437" height="34.8777" filterUnits="userSpaceOnUse" color-interpolation-filters="sRGB">
<feFlood flood-opacity="0" result="BackgroundImageFix"/>
<feColorMatrix in="SourceAlpha" type="matrix" values="0 0 0 0 0 0 0 0 0 0 0 0 0 0 0 0 0 0 127 0" result="hardAlpha"/>
<feOffset dy="4"/>
<feGaussianBlur stdDeviation="2"/>
<feComposite in2="hardAlpha" operator="out"/>
<feColorMatrix type="matrix" values="0 0 0 0 0 0 0 0 0 0 0 0 0 0 0 0 0 0 0.25 0"/>
<feBlend mode="normal" in2="BackgroundImageFix" result="effect1_dropShadow_80_64"/>
<feBlend mode="normal" in="SourceGraphic" in2="effect1_dropShadow_80_64" result="shape"/>
</filter>
<filter id="filter9_d_80_64" x="414.083" y="156.316" width="35.0024" height="34.763" filterUnits="userSpaceOnUse" color-interpolation-filters="sRGB">
<feFlood flood-opacity="0" result="BackgroundImageFix"/>
<feColorMatrix in="SourceAlpha" type="matrix" values="0 0 0 0 0 0 0 0 0 0 0 0 0 0 0 0 0 0 127 0" result="hardAlpha"/>
<feOffset dy="4"/>
<feGaussianBlur stdDeviation="2"/>
<feComposite in2="hardAlpha" operator="out"/>
<feColorMatrix type="matrix" values="0 0 0 0 0 0 0 0 0 0 0 0 0 0 0 0 0 0 0.25 0"/>
<feBlend mode="normal" in2="BackgroundImageFix" result="effect1_dropShadow_80_64"/>
<feBlend mode="normal" in="SourceGraphic" in2="effect1_dropShadow_80_64" result="shape"/>
</filter>
<filter id="filter10_d_80_64" x="399.91" y="121.748" width="34.0022" height="35.0414" filterUnits="userSpaceOnUse" color-interpolation-filters="sRGB">
<feFlood flood-opacity="0" result="BackgroundImageFix"/>
<feColorMatrix in="SourceAlpha" type="matrix" values="0 0 0 0 0 0 0 0 0 0 0 0 0 0 0 0 0 0 127 0" result="hardAlpha"/>
<feOffset dy="4"/>
<feGaussianBlur stdDeviation="2"/>
<feComposite in2="hardAlpha" operator="out"/>
<feColorMatrix type="matrix" values="0 0 0 0 0 0 0 0 0 0 0 0 0 0 0 0 0 0 0.25 0"/>
<feBlend mode="normal" in2="BackgroundImageFix" result="effect1_dropShadow_80_64"/>
<feBlend mode="normal" in="SourceGraphic" in2="effect1_dropShadow_80_64" result="shape"/>
</filter>
<filter id="filter11_d_80_64" x="344.91" y="116.748" width="34.0022" height="35.0414" filterUnits="userSpaceOnUse" color-interpolation-filters="sRGB">
<feFlood flood-opacity="0" result="BackgroundImageFix"/>
<feColorMatrix in="SourceAlpha" type="matrix" values="0 0 0 0 0 0 0 0 0 0 0 0 0 0 0 0 0 0 127 0" result="hardAlpha"/>
<feOffset dy="4"/>
<feGaussianBlur stdDeviation="2"/>
<feComposite in2="hardAlpha" operator="out"/>
<feColorMatrix type="matrix" values="0 0 0 0 0 0 0 0 0 0 0 0 0 0 0 0 0 0 0.25 0"/>
<feBlend mode="normal" in2="BackgroundImageFix" result="effect1_dropShadow_80_64"/>
<feBlend mode="normal" in="SourceGraphic" in2="effect1_dropShadow_80_64" result="shape"/>
</filter>
<filter id="filter12_d_80_64" x="315.56" y="157.143" width="34.2231" height="34.8808" filterUnits="userSpaceOnUse" color-interpolation-filters="sRGB">
<feFlood flood-opacity="0" result="BackgroundImageFix"/>
<feColorMatrix in="SourceAlpha" type="matrix" values="0 0 0 0 0 0 0 0 0 0 0 0 0 0 0 0 0 0 127 0" result="hardAlpha"/>
<feOffset dy="4"/>
<feGaussianBlur stdDeviation="2"/>
<feComposite in2="hardAlpha" operator="out"/>
<feColorMatrix type="matrix" values="0 0 0 0 0 0 0 0 0 0 0 0 0 0 0 0 0 0 0.25 0"/>
<feBlend mode="normal" in2="BackgroundImageFix" result="effect1_dropShadow_80_64"/>
<feBlend mode="normal" in="SourceGraphic" in2="effect1_dropShadow_80_64" result="shape"/>
</filter>
<filter id="filter13_d_80_64" x="351.535" y="64.9639" width="33.6992" height="35.3743" filterUnits="userSpaceOnUse" color-interpolation-filters="sRGB">
<feFlood flood-opacity="0" result="BackgroundImageFix"/>
<feColorMatrix in="SourceAlpha" type="matrix" values="0 0 0 0 0 0 0 0 0 0 0 0 0 0 0 0 0 0 127 0" result="hardAlpha"/>
<feOffset dy="4"/>
<feGaussianBlur stdDeviation="2"/>
<feComposite in2="hardAlpha" operator="out"/>
<feColorMatrix type="matrix" values="0 0 0 0 0 0 0 0 0 0 0 0 0 0 0 0 0 0 0.25 0"/>
<feBlend mode="normal" in2="BackgroundImageFix" result="effect1_dropShadow_80_64"/>
<feBlend mode="normal" in="SourceGraphic" in2="effect1_dropShadow_80_64" result="shape"/>
</filter>
</defs>
</svg>
